<svg xmlns="http://www.w3.org/2000/svg" viewBox="0 0 440 120" width="440" height="120" role="img" aria-label="ArgosCam">
  <title>ArgosCam</title>
  <!-- Símbolo -->
  <g fill="#2F6FE4">
    <circle cx="60" cy="11.5" r="5.4"/><circle cx="84.3" cy="18" r="3.3" opacity="0.42"/>
    <circle cx="102.1" cy="35.7" r="4.7" opacity="0.72"/><circle cx="108.5" cy="60" r="3.1" opacity="0.32"/>
    <circle cx="102.1" cy="84.3" r="4.7" opacity="0.72"/><circle cx="84.3" cy="102.1" r="3.3" opacity="0.42"/>
    <circle cx="60" cy="108.5" r="5.4" opacity="0.88"/><circle cx="35.7" cy="102.1" r="3.3" opacity="0.42"/>
    <circle cx="17.9" cy="84.3" r="4.7" opacity="0.72"/><circle cx="11.5" cy="60" r="3.1" opacity="0.32"/>
    <circle cx="17.9" cy="35.7" r="4.7" opacity="0.72"/>
  </g>
  <circle cx="35.7" cy="17.9" r="5.8" fill="#F5A524"/>
  <circle cx="60" cy="60" r="31" fill="none" stroke="#2F6FE4" stroke-width="6"/>
  <circle cx="60" cy="60" r="22" fill="#2F6FE4"/>
  <circle cx="60" cy="60" r="11.5" fill="#0E1729"/>
  <circle cx="65.8" cy="54.2" r="4.2" fill="#FFFFFF" opacity="0.95"/>
  <!-- Nome em curvas (Sora) -->
  <g transform="translate(150,78)">
      <path transform="translate(0.00,0) scale(0.052,-0.052)" d="M8 0 242 730H540L782 0H590L402 600L455 580H323L377 600L194 0ZM199 169 255 321H532L588 169Z" fill="#0E1729"/>
      <path transform="translate(40.14,0) scale(0.052,-0.052)" d="M66 0V552H210V312H208Q208 428 256.5 494.0Q305 560 396 560H418V404H376Q315 404 281.5 371.0Q248 338 248 276V0Z" fill="#0E1729"/>
      <path transform="translate(61.26,0) scale(0.052,-0.052)" d="M287 -221Q246 -221 202.5 -218.0Q159 -215 124 -210V-58Q159 -62 202.0 -65.5Q245 -69 281 -69Q343 -69 382.5 -56.0Q422 -43 441.0 -16.0Q460 11 460 53V165L488 225Q486 155 461.0 103.5Q436 52 389.5 24.0Q343 -4 277 -4Q221 -4 176.0 16.0Q131 36 99.5 72.5Q68 109 51.0 159.0Q34 209 34 268V292Q34 351 52.0 401.5Q70 452 104.0 489.5Q138 527 184.5 547.5Q231 568 288 568Q354 568 402.0 538.5Q450 509 477.0 453.0Q504 397 506 317L486 310V552H630V65Q630 -37 592.0 -100.0Q554 -163 477.5 -192.0Q401 -221 287 -221ZM338 146Q371 146 397.5 161.0Q424 176 440.0 204.5Q456 233 456 273V297Q456 336 439.5 363.0Q423 390 396.0 404.0Q369 418 338 418Q302 418 274.5 401.0Q247 384 231.5 353.0Q216 322 216 280Q216 238 231.5 208.0Q247 178 274.5 162.0Q302 146 338 146Z" fill="#0E1729"/>
      <path transform="translate(96.20,0) scale(0.052,-0.052)" d="M341 -20Q268 -20 211.0 2.0Q154 24 114.5 63.0Q75 102 54.5 153.0Q34 204 34 262V286Q34 346 55.5 398.0Q77 450 117.0 489.0Q157 528 214.0 550.0Q271 572 341 572Q412 572 468.5 550.0Q525 528 565.0 489.0Q605 450 626.5 398.0Q648 346 648 286V262Q648 204 627.5 153.0Q607 102 567.5 63.0Q528 24 471.0 2.0Q414 -20 341 -20ZM341 132Q383 132 410.5 150.0Q438 168 452.0 200.5Q466 233 466 274Q466 317 451.5 349.5Q437 382 409.0 401.0Q381 420 341 420Q301 420 273.0 401.0Q245 382 230.5 349.5Q216 317 216 274Q216 233 230.0 200.5Q244 168 272.0 150.0Q300 132 341 132Z" fill="#0E1729"/>
      <path transform="translate(130.73,0) scale(0.052,-0.052)" d="M285 -18Q165 -18 96.0 31.5Q27 81 22 171H182Q186 146 213.0 128.0Q240 110 289 110Q324 110 349.5 120.5Q375 131 375 155Q375 176 355.0 189.5Q335 203 282 208L244 212Q138 223 88.0 270.0Q38 317 38 388Q38 449 68.0 488.5Q98 528 151.0 548.0Q204 568 272 568Q383 568 451.0 519.5Q519 471 523 380H363Q359 405 336.0 422.5Q313 440 270 440Q239 440 219.5 429.0Q200 418 200 398Q200 377 218.5 367.0Q237 357 278 352L316 348Q422 337 479.5 289.5Q537 242 537 165Q537 108 506.5 67.0Q476 26 419.5 4.0Q363 -18 285 -18Z" fill="#0E1729"/>
      <path transform="translate(162.14,0) scale(0.052,-0.052)" d="M419 -19Q320 -19 249.0 16.0Q178 51 133.5 107.0Q89 163 68.0 229.0Q47 295 47 356V378Q47 446 68.5 512.0Q90 578 135.0 632.0Q180 686 249.5 718.5Q319 751 414 751Q513 751 586.5 715.5Q660 680 704.0 615.5Q748 551 757 465H614Q606 515 578.5 549.5Q551 584 509.0 601.5Q467 619 414 619Q360 619 318.0 600.5Q276 582 248.0 548.0Q220 514 205.5 468.0Q191 422 191 366Q191 312 205.5 266.0Q220 220 249.0 185.5Q278 151 320.5 132.0Q363 113 419 113Q501 113 557.5 153.5Q614 194 626 267H769Q759 189 716.0 124.0Q673 59 598.0 20.0Q523 -19 419 -19Z" fill="#2F6FE4"/>
      <path transform="translate(202.75,0) scale(0.052,-0.052)" d="M408 0V161H385V340Q385 387 362.0 410.0Q339 433 291 433Q266 433 231.0 432.0Q196 431 160.5 429.5Q125 428 97 426V544Q120 546 149.0 548.0Q178 550 208.5 550.5Q239 551 266 551Q350 551 405.5 529.0Q461 507 489.5 460.0Q518 413 518 337V0ZM233 -14Q174 -14 129.5 7.0Q85 28 60.5 67.0Q36 106 36 161Q36 221 65.5 259.0Q95 297 148.5 316.0Q202 335 274 335H400V252H272Q224 252 198.5 228.5Q173 205 173 168Q173 131 198.5 108.0Q224 85 272 85Q301 85 325.5 95.5Q350 106 366.5 131.5Q383 157 385 201L419 162Q414 105 391.5 66.0Q369 27 329.5 6.5Q290 -14 233 -14Z" fill="#2F6FE4"/>
      <path transform="translate(232.39,0) scale(0.052,-0.052)" d="M79 0V543H189V310H179Q179 392 200.0 447.5Q221 503 262.5 531.5Q304 560 366 560H372Q435 560 476.5 531.5Q518 503 538.5 447.5Q559 392 559 310H524Q524 392 545.5 447.5Q567 503 608.5 531.5Q650 560 712 560H718Q781 560 823.0 531.5Q865 503 886.5 447.5Q908 392 908 310V0H769V323Q769 374 743.0 404.5Q717 435 669 435Q621 435 592.0 403.5Q563 372 563 319V0H424V323Q424 374 398.0 404.5Q372 435 324 435Q276 435 247.0 403.5Q218 372 218 319V0Z" fill="#2F6FE4"/>
  </g>
</svg>
