<svg xmlns="http://www.w3.org/2000/svg" viewBox="0 0 120 120" width="120" height="120" role="img" aria-label="ArgosCam">
  <title>ArgosCam</title>
  <g fill="#0E1729">
    <circle cx="60" cy="11.5" r="5.4"/><circle cx="84.3" cy="18" r="3.3"/><circle cx="102.1" cy="35.7" r="4.7"/>
    <circle cx="108.5" cy="60" r="3.1"/><circle cx="102.1" cy="84.3" r="4.7"/><circle cx="84.3" cy="102.1" r="3.3"/>
    <circle cx="60" cy="108.5" r="5.4"/><circle cx="35.7" cy="102.1" r="3.3"/><circle cx="17.9" cy="84.3" r="4.7"/>
    <circle cx="11.5" cy="60" r="3.1"/><circle cx="17.9" cy="35.7" r="4.7"/><circle cx="35.7" cy="17.9" r="5.8"/>
  </g>
  <circle cx="60" cy="60" r="31" fill="none" stroke="#0E1729" stroke-width="6"/>
  <path fill="#0E1729" fill-rule="evenodd" d="M60 38a22 22 0 1 0 0 44 22 22 0 0 0 0-44zm0 10.5a11.5 11.5 0 1 1 0 23 11.5 11.5 0 0 1 0-23z"/>
</svg>
